<svg width="511" height="286" viewBox="0 0 511 286" fill="none" xmlns="http://www.w3.org/2000/svg">
<g clip-path="url(#clip0)">
<path d="M506.48 142.43C506.48 154.34 496.48 166.62 484.15 169.71L30.39 280.86C15.64 284.57 3.59998 275.92 3.59998 261.64V141.72C3.59998 129.81 13.6 117.53 25.94 114.44L474.55 4.61C492.18 0.189995 506.55 10.51 506.55 27.61V142.43H506.48Z" fill="#008B56"/>
<path d="M500.1 5.72998C493.17 0.329975 483.54 -1.36002 473.7 1.10998L25.06 111C11.24 114.42 0 128.23 0 141.72V261.64C0 269.38 3.08 276.05 8.67 280.4C13.0003 283.673 18.3024 285.402 23.73 285.31C26.263 285.305 28.7855 284.985 31.24 284.36L485 173.2C497.6 170.03 508.05 158.27 509.8 145.99H510.14V27.57C510.17 18.56 506.59 10.8 500.1 5.72998ZM503 138.87H502.92V142.43C502.92 152.65 493.92 163.55 483.32 166.22L29.51 277.37C23.16 278.97 17.33 278.03 13.09 274.73C9.29 271.73 7.2 267.12 7.2 261.64V141.72C7.2 131.5 16.2 120.6 26.79 117.93L475.43 8.09998C477.776 7.49625 480.188 7.18389 482.61 7.16998C487.317 7.07133 491.919 8.56542 495.67 11.41C500.38 15.08 502.97 20.82 502.97 27.57L503 138.87Z" fill="white"/>
<path d="M130 221.16V154.67L109.4 226.14L95 229.62L73.36 169.23V234.88L56.36 239L56.25 138.52L78.67 133.1L101.4 195.36L121.55 122.72L147.85 116.36V216.87L130 221.16Z" fill="white"/>
<path d="M211.53 181L181.45 188.28L175.92 210.03L155.68 215L185.53 107.27L206.46 102.21L236 195.53L217.25 200.07L211.53 181ZM187.09 166.5L205.85 162L196.36 129.71L187.09 166.5Z" fill="white"/>
<path d="M243.12 193.8L243 93.32L261.3 88.9V189.4L243.12 193.8Z" fill="white"/>
<path d="M328.81 173.07L295.99 115.07V181L278.15 185.32L278.05 84.84L298.63 79.84L328.63 133.84V72.62L346.7 68.25V168.76L328.81 173.07Z" fill="white"/>
<path d="M448.07 76.82L446.93 122.66L435 125.55L436.07 79.72L420.39 83.51L420.76 71.09L463.35 60.79L463 73.21L448.07 76.82Z" fill="white"/>
<path d="M417.33 112.84C416.844 109.653 415.339 106.71 413.04 104.45C410.793 102.29 407.42 100.803 402.92 99.99L396.82 98.86C395.737 98.6624 394.712 98.225 393.82 97.58C393.35 97.2073 392.958 96.7448 392.668 96.2195C392.378 95.6942 392.195 95.1165 392.13 94.52C391.975 93.7342 391.975 92.9257 392.13 92.14C392.307 91.3207 392.647 90.5453 393.13 89.86C394.264 88.2347 395.966 87.0931 397.9 86.66C399.354 86.2249 400.898 86.1903 402.37 86.56C403.405 86.853 404.353 87.3955 405.13 88.14C405.768 88.7685 406.266 89.5251 406.59 90.36C406.78 90.87 406.92 91.29 407.02 91.62L417.29 85.39C416.974 84.5094 416.6 83.6509 416.17 82.82C415.232 81.0162 413.916 79.4368 412.31 78.19C410.418 76.7647 408.226 75.79 405.9 75.34C402.775 74.7825 399.564 74.9432 396.51 75.81C393.966 76.424 391.545 77.4655 389.35 78.89C387.223 80.2584 385.352 81.9877 383.82 84C382.308 86.0008 381.206 88.2814 380.58 90.71C379.916 93.2517 379.827 95.9096 380.32 98.49C380.826 101.644 382.285 104.568 384.5 106.87C386.984 109.267 390.183 110.787 393.61 111.2L400.34 112.34C401.64 112.497 402.855 113.064 403.81 113.96C404.512 114.739 404.973 115.705 405.14 116.74C405.312 117.555 405.299 118.398 405.104 119.208C404.908 120.017 404.535 120.773 404.01 121.42C402.689 122.916 400.903 123.923 398.94 124.28C397.504 124.625 396.012 124.666 394.56 124.4C393.386 124.169 392.277 123.684 391.31 122.98C390.41 122.303 389.666 121.44 389.13 120.45C388.582 119.437 388.201 118.343 388 117.21C387.911 116.724 387.858 116.233 387.84 115.74L377.44 121.89C377.435 121.967 377.435 122.043 377.44 122.12C377.811 124.088 378.522 125.976 379.54 127.7C380.661 129.647 382.197 131.324 384.04 132.61C386.172 134.084 388.603 135.071 391.16 135.5C394.458 136.019 397.829 135.832 401.05 134.95C403.914 134.311 406.63 133.13 409.05 131.47C411.17 130.013 412.999 128.171 414.44 126.04C415.776 124.074 416.717 121.866 417.21 119.54C417.679 117.335 417.72 115.06 417.33 112.84Z" fill="white"/>
</g>
<defs>
<clipPath id="clip0">
<rect width="510.17" height="285.31" fill="white"/>
</clipPath>
</defs>
</svg>
